<?xml version="1.0" encoding="utf-8"?>
<!-- Generator: Adobe Illustrator 16.0.0, SVG Export Plug-In . SVG Version: 6.00 Build 0)  -->
<!DOCTYPE svg PUBLIC "-//W3C//DTD SVG 1.1//EN" "http://www.w3.org/Graphics/SVG/1.1/DTD/svg11.dtd">
<svg version="1.1" id="Calque_1" xmlns="http://www.w3.org/2000/svg" xmlns:xlink="http://www.w3.org/1999/xlink" x="0px" y="0px"
	 width="1118.11px" height="228.874px" viewBox="0 0 1118.11 228.874" enable-background="new 0 0 1118.11 228.874"
	 xml:space="preserve">
<g>
	<defs>
		<rect id="SVGID_1_" width="1118.108" height="228.874"/>
	</defs>
	<clipPath id="SVGID_2_">
		<use xlink:href="#SVGID_1_"  overflow="visible"/>
	</clipPath>
	<path clip-path="url(#SVGID_2_)" fill="#009FE3" d="M187.204,0H41.669C18.693,0,0,18.694,0,41.669v145.535
		c0,22.978,18.693,41.67,41.669,41.67h145.534c22.977,0,41.67-18.692,41.67-41.67V41.669C228.874,18.694,210.18,0,187.204,0
		 M189.524,114.434h-24.522v88.811h-36.738v-88.811h-18.366V83.821h18.366V65.45c0-24.971,10.366-39.82,39.812-39.82h24.522v30.61
		h-15.321c-11.466,0-12.228,4.28-12.228,12.261l-0.047,15.32h27.773L189.524,114.434z"/>
	<path clip-path="url(#SVGID_2_)" fill-rule="evenodd" clip-rule="evenodd" fill="#009FE3" d="M412.54,1.342H267.548
		c-22.381,0-40.599,18.219-40.599,40.597v144.997c0,22.376,18.218,40.597,40.599,40.597H412.54
		c22.379,0,40.598-18.221,40.598-40.597V41.939C453.138,19.561,434.918,1.342,412.54,1.342 M408.987,118.04
		c-5.721,20.887-18.791,35.844-35.333,45.233c-38.841,22.045-95.378,18.847-123.73-21.219c18.603,14.6,46.164,17.815,66.635-2.533
		c-13.41,0.003-16.883-10.039-6.252-15.463c-10.069-0.104-16.468-3.288-20.223-9.055c-1.426-2.19-1.441-2.358,0.884-4.039
		c2.559-1.848,6.044-2.67,9.644-2.947c-10.42-2.982-16.791-8.427-18.998-15.728c-0.729-2.415-0.843-2.292,1.615-2.916
		c2.402-0.609,5.494-0.934,8.265-1.071c-8.183-4.964-13.073-11.047-14.317-17.773c-1.177-6.348,0.034-4.72,4.788-2.901
		c21.249,8.13,42.434,16.861,54.976,29.786c5.766-17.998,12.814-29.662,20.923-38.117c6.05-6.31,9.173-8.313,5.621-1.366
		c1.569-1.256,3.827-2.929,5.578-3.824c9.812-4.629,9.117-0.748,2.355,3.412c18.45-6.601,17.811,1.805-1.704,5.992
		c15.956,0.3,32.918,10.453,37.8,32.049c0.675,2.989-0.133,2.705,2.928,3.246c6.609,1.17,12.825,1.099,18.886-0.827
		c-0.655,4.468-6.558,7.372-15.765,9.289c-3.411,0.71-4.11,0.524-0.022,1.443c5.035,1.132,10.669,1.425,16.622,1.146
		C425.524,115.198,418.13,117.928,408.987,118.04"/>
	<path clip-path="url(#SVGID_2_)" fill="#009FE3" d="M556.499,170.452c0,0.889-3.147,4.036-5.369,4.036
		c-2.258,0-2.258-1.78-2.258-1.78v-38.103h-8.518v38.993c0,5.814,1.813,8.961,6.738,8.961c4.926,0,9.406-5.849,9.406-5.849v5.404
		h8.518v-47.51h-8.518V170.452z"/>
	<path clip-path="url(#SVGID_2_)" fill="#009FE3" d="M589.678,133.7c-4.036,0-8.517,5.388-8.517,5.388v-20.627h-8.518v63.654h8.518
		v-4.924c1.778,2.222,4.925,5.368,10.295,5.368s6.294-8.961,6.294-8.961v-31.382C597.75,136.386,593.714,133.7,589.678,133.7
		 M589.233,170.452c0,0,0,4.036-3.592,4.036c0,0-2.702,0-4.036-1.78v-29.14c0,0,1.778-1.797,4.036-1.797
		c2.223,0,3.592,1.797,3.592,4.928V170.452z"/>
	<path clip-path="url(#SVGID_2_)" fill="#009FE3" d="M508.989,118.018v9.404h9.851v54.25h9.441v-54.25h10.295
		c0.443,0,0-9.404,0-9.404H508.989z"/>
	<path clip-path="url(#SVGID_2_)" fill="#009FE3" d="M621.932,165.528v3.59c0,0,0,5.37-3.592,5.37c-3.591,0-4.925-2.703-4.925-5.37
		v-9.404h17.034v-13.015c0,0,0.444-12.554-12.109-12.554c-10.74,0-11.628,5.386-12.553,8.071c0,0-0.89,2.685-0.89,4.482v22.419
		c0,0-0.444,13.442,13.887,13.442c0,0,9.887-0.889,11.22-8.961c0.89-5.852,0.445-8.071,0.445-8.071H621.932z M613.415,146.699
		c0-0.891,0.889-4.927,4.48-4.927c3.593,0,4.036,4.927,4.036,4.927v5.83h-8.517V146.699z"/>
	<path clip-path="url(#SVGID_2_)" fill="#009FE3" d="M639.819,0H494.285c-22.977,0-41.67,18.693-41.67,41.671v145.533
		c0,22.976,18.693,41.67,41.67,41.67h145.534c22.976,0,41.67-18.694,41.67-41.67V41.671C681.489,18.693,662.795,0,639.819,0
		 M583.184,43.946h8.452V81.74c0,0-0.446,2.213,2.669,2.213c0,0,3.552-0.889,4.892-3.998V43.946h8.442v47.129h-8.442V85.74
		c0,0-4.892,5.774-9.337,5.774c-4.449,0-6.676-2.67-6.676-7.114V43.946z M551.18,56.841c0-1.338,0.446-4.444,0.446-4.444
		c1.888-6.282,7.094-8.127,9.996-8.671c1.2-0.226,2.765-0.226,3.921-0.014c2.877,0.518,8.18,2.331,10.092,8.685
		c0,0,0.438,3.106,0.438,4.444v22.221c0,0-0.115,3.792-2.225,7.125c-1.538,2.441-4.188,4.598-8.38,5.171
		c-0.714,0.101-2.673,0.122-3.271,0.063c-4.436-0.502-7.201-2.715-8.795-5.234c-2.109-3.333-2.223-7.125-2.223-7.125V56.841z
		 M528.064,27.945l6.667,24.452l6.667-24.452h9.335l-11.558,37.338V90.63h-8.889V65.283l-12.005-37.338H528.064z M635.188,191.965
		c-1.125,1.69-4.584,5.748-8.517,6.704c-8.962,1.814-35.194,2.258-59.378,2.258c-17.719,0-44.604-0.43-54.934-1.333
		c-20.146-1.812-18.367-26.887-19.257-47.75c0-9.627,0.89-22.181,2.685-32.029c4.037-17.479,15.239-15.24,31.383-16.146
		c1.722,0,14.335-0.837,39.438-0.445c36.438,0.569,48.201,0.108,59.138,1.795c15.7,2.241,14.366,27.331,15.256,46.611
		C640.531,174.338,640.436,184.934,635.188,191.965"/>
	<path clip-path="url(#SVGID_2_)" fill="#FFFFFF" d="M703.631,83.953c0,0,3.997,0.447,3.997-4.891V56.841
		c0,0,0.447-5.782-3.997-5.782c0,0-4.445-0.447-4.445,5.782v22.221C699.186,84.4,703.631,83.953,703.631,83.953"/>
	<path clip-path="url(#SVGID_2_)" fill="#009FE3" d="M867.438,0.001H721.905c-22.977,0-41.67,18.694-41.67,41.67v145.534
		c0,22.978,18.693,41.669,41.67,41.669h145.533c22.978,0,41.67-18.691,41.67-41.669V41.671
		C909.108,18.695,890.416,0.001,867.438,0.001 M807.265,150.791c-10.123,0-19.644-5.474-22.902-11.687
		c0,0-5.445,21.601-6.595,25.771c-4.06,14.73-16.003,29.473-16.927,30.682c-0.647,0.84-2.076,0.577-2.228-0.537
		c-0.258-1.878-3.302-20.466,0.281-35.63c1.798-7.613,12.059-51.089,12.059-51.089s-2.989-5.986-2.989-14.835
		c0-13.895,8.055-24.266,18.08-24.266c8.526,0,12.646,6.399,12.646,14.074c0,8.574-5.46,21.391-8.278,33.269
		c-2.353,9.949,4.989,18.061,14.799,18.061c17.761,0,29.724-22.818,29.724-49.851c0-20.546-13.832-35.929-39.01-35.929
		c-28.435,0-46.162,21.211-46.162,44.905c0,8.164,2.414,13.931,6.189,18.385c1.732,2.051,1.977,2.875,1.349,5.226
		c-0.458,1.727-1.482,5.878-1.915,7.523c-0.623,2.379-2.547,3.225-4.694,2.349c-13.095-5.347-19.199-19.694-19.199-35.82
		c0-26.632,22.46-58.569,67.005-58.569c35.801,0,59.356,25.9,59.356,53.713C857.853,123.312,837.404,150.791,807.265,150.791"/>
</g>
</svg>
